<svg width="49" height="52" viewBox="0 0 49 52" fill="none" xmlns="http://www.w3.org/2000/svg">
<path d="M39.542 12.558C37.1913 10.8633 35.1687 9.63333 33.474 8.868C31.7793 8.048 29.8113 7.638 27.57 7.638C23.0873 7.638 19.2333 8.786 16.008 11.082C13.548 12.886 11.7167 15.2367 10.514 18.134C9.31133 21.0313 8.71 24.284 8.71 27.892C8.71 31.336 9.50267 34.37 11.088 36.994C12.6733 39.5633 14.7233 41.5313 17.238 42.898C19.7527 44.2647 22.3767 44.948 25.11 44.948C27.8433 44.948 30.194 44.538 32.162 43.718C34.1847 42.8433 35.7973 41.7227 37 40.356C38.8587 38.0053 39.788 34.8893 39.788 31.008C39.788 30.4613 39.3507 30.0787 38.476 29.86C37.6013 29.6413 36.344 29.532 34.704 29.532L28.8 29.614C27.2147 29.614 25.9573 29.3133 25.028 28.712C24.0987 28.1107 23.634 27.3453 23.634 26.416C23.634 25.104 24.0713 24.1473 24.946 23.546C25.8207 22.89 26.996 22.562 28.472 22.562C30.2213 22.562 32.572 22.6713 35.524 22.89C38.476 23.1087 40.608 23.218 41.92 23.218C43.8333 23.218 45.364 23.8193 46.512 25.022C47.7147 26.2247 48.316 27.974 48.316 30.27C48.316 32.402 47.8513 34.8893 46.922 37.732C45.9927 40.5747 44.6807 43.1167 42.986 45.358C41.346 47.5447 38.9133 49.212 35.688 50.36C32.5173 51.4533 28.9913 52 25.11 52C21.8847 52 18.7687 51.4807 15.762 50.442C12.7553 49.4033 10.2407 47.9547 8.218 46.096C5.70333 43.7453 3.708 40.9573 2.232 37.732C0.810667 34.452 0.1 31.1993 0.1 27.974C0.1 23.2727 1.19333 18.708 3.38 14.28C5.62133 9.79733 8.628 6.326 12.4 3.866C14.04 2.77266 16.336 1.87066 19.288 1.16C22.24 0.449332 24.946 0.0939987 27.406 0.0939987C31.2327 0.0939987 34.5947 0.695332 37.492 1.898C40.3893 3.046 42.6033 4.71333 44.134 6.9C44.79 7.884 45.118 8.75867 45.118 9.524C45.118 10.3987 44.7353 11.2187 43.97 11.984C43.2047 12.7493 42.4393 13.132 41.674 13.132C41.346 13.132 40.9633 13.0773 40.526 12.968C40.0887 12.8587 39.7607 12.722 39.542 12.558Z" fill="black"/>
</svg>
