<svg width="13" height="13" viewBox="0 0 13 13" fill="none" xmlns="http://www.w3.org/2000/svg">
<path fill-rule="evenodd" clip-rule="evenodd" d="M1.34033 12.5908C1.34033 12.5908 0.340332 12.5908 0.340332 11.5908C0.340332 10.5908 1.34033 7.59082 6.34033 7.59082C11.3403 7.59082 12.3403 10.5908 12.3403 11.5908C12.3403 12.5908 11.3403 12.5908 11.3403 12.5908H1.34033ZM6.34033 6.59082C7.13598 6.59082 7.89904 6.27475 8.46165 5.71214C9.02426 5.14953 9.34033 4.38647 9.34033 3.59082C9.34033 2.79517 9.02426 2.03211 8.46165 1.4695C7.89904 0.906891 7.13598 0.59082 6.34033 0.59082C5.54468 0.59082 4.78162 0.906891 4.21901 1.4695C3.6564 2.03211 3.34033 2.79517 3.34033 3.59082C3.34033 4.38647 3.6564 5.14953 4.21901 5.71214C4.78162 6.27475 5.54468 6.59082 6.34033 6.59082Z" fill="#00C65E"/>
</svg>
