<svg width="17" height="17" viewBox="0 0 17 17" fill="none" xmlns="http://www.w3.org/2000/svg">
<path fill-rule="evenodd" clip-rule="evenodd" d="M1.41667 17C1.41667 17 0 17 0 15.5833C0 14.1667 1.41667 9.91668 8.50002 9.91668C15.5833 9.91668 17 14.1667 17 15.5833C17 17 15.5833 17 15.5833 17H1.41667ZM8.50002 8.50001C9.62719 8.50001 10.7082 8.05225 11.5052 7.25522C12.3023 6.45818 12.75 5.37718 12.75 4.25001C12.75 3.12283 12.3023 2.04183 11.5052 1.2448C10.7082 0.447768 9.62719 0 8.50002 0C7.37285 0 6.29184 0.447768 5.49481 1.2448C4.69778 2.04183 4.25001 3.12283 4.25001 4.25001C4.25001 5.37718 4.69778 6.45818 5.49481 7.25522C6.29184 8.05225 7.37285 8.50001 8.50002 8.50001Z" fill="black"/>
</svg>
